<?xml version="1.0" encoding="UTF-8"?>
<svg version="1.1" xmlns="http://www.w3.org/2000/svg" width="1536" height="1024">
<path d="M0 0 C506.88 0 1013.76 0 1536 0 C1536 337.92 1536 675.84 1536 1024 C1029.12 1024 522.24 1024 0 1024 C0 686.08 0 348.16 0 0 Z " fill="#FEFEFE" transform="translate(0,0)"/>
<path d="M0 0 C1.72719772 0.00323273 1.72719772 0.00323273 3.48928833 0.00653076 C19.98612043 0.05611685 36.16896367 0.31917469 52.4375 3.3125 C53.57477539 3.51649414 54.71205078 3.72048828 55.88378906 3.93066406 C122.03778304 16.07274097 182.86975171 44.60757509 231.92919922 90.90576172 C233.41597455 92.29242398 234.92275762 93.65228411 236.44140625 95.00390625 C241.09733708 99.1530691 245.49775561 103.29278061 249.5078125 108.0703125 C251.50640059 110.39255857 253.58685944 112.61427859 255.68969727 114.84155273 C262.10079429 121.65591388 267.92181449 128.75442552 273.4375 136.3125 C273.90655762 136.95171387 274.37561523 137.59092773 274.85888672 138.24951172 C282.65295311 148.92170352 289.73251755 159.92848246 296.4375 171.3125 C296.8303418 171.97040527 297.22318359 172.62831055 297.62792969 173.30615234 C304.51358525 184.87323187 310.11961973 196.95550431 315.4375 209.3125 C315.75960449 210.05661133 316.08170898 210.80072266 316.41357422 211.56738281 C330.15805186 243.76530261 337.44095285 278.5651874 340.4375 313.3125 C340.53248779 314.38008545 340.62747559 315.4476709 340.7253418 316.54760742 C345.39384206 372.24177812 334.43910221 432.87133459 309.54394531 483.07470703 C308.37345694 485.44202751 307.24449817 487.8266881 306.1171875 490.21484375 C295.02078027 513.40331635 280.57333595 534.38368741 264.4375 554.3125 C264.01903809 554.83682617 263.60057617 555.36115234 263.16943359 555.90136719 C256.1312874 564.67227587 248.29761858 572.66059466 240.375 580.625 C239.61481064 581.3930899 239.61481064 581.3930899 238.83926392 582.17669678 C232.0417492 589.02875428 224.99635497 595.29241472 217.4375 601.3125 C215.6224197 602.87200185 213.80933674 604.43383812 212 606 C206.50213947 610.59847438 200.74014864 614.75782999 194.875 618.875 C193.55254272 619.80542114 193.55254272 619.80542114 192.20336914 620.75463867 C185.82297493 625.18400836 185.82297493 625.18400836 182.4375 626.3125 C182.4375 562.2925 182.4375 498.2725 182.4375 432.3125 C167.2575 432.3125 152.0775 432.3125 136.4375 432.3125 C136.4375 504.5825 136.4375 576.8525 136.4375 651.3125 C109.65487136 661.79265903 109.65487136 661.79265903 100.3125 664.5625 C98.68707275 665.05024902 98.68707275 665.05024902 97.02880859 665.54785156 C77.66934666 671.27240836 58.45896504 674.73639364 38.4375 677.3125 C37.68130371 677.4148999 36.92510742 677.5172998 36.14599609 677.62280273 C-17.94627178 684.81160794 -73.04223762 674.45359719 -123.5625 655.3125 C-123.66290413 650.05132338 -123.73467623 644.79072883 -123.78222656 639.52880859 C-123.8020907 637.74648297 -123.8291916 635.96422025 -123.86425781 634.18212891 C-124.14703442 619.41952643 -123.04545497 605.40638319 -115.9375 592.125 C-115.59904053 591.47265381 -115.26058105 590.82030762 -114.91186523 590.14819336 C-104.04046066 569.93667181 -85.85986448 554.75715053 -66.0625 543.6875 C-65.34586182 543.2860376 -64.62922363 542.8845752 -63.89086914 542.47094727 C-58.79854987 539.73119581 -54.19119656 538.18873219 -48.5625 536.3125 C-48.5625 504.9625 -48.5625 473.6125 -48.5625 441.3125 C-4.5625 441.3125 -4.5625 441.3125 10.4375 442.3125 C10.4375 470.3625 10.4375 498.4125 10.4375 527.3125 C15.0575 527.6425 19.6775 527.9725 24.4375 528.3125 C24.7675 473.5325 25.0975 418.7525 25.4375 362.3125 C46.8875 362.3125 68.3375 362.3125 90.4375 362.3125 C90.4375 412.8025 90.4375 463.2925 90.4375 515.3125 C93.4075 515.3125 96.3775 515.3125 99.4375 515.3125 C101.4454077 515.59431161 103.4512698 515.90506816 105.4375 516.3125 C105.41529388 515.13423141 105.39308777 513.95596283 105.37020874 512.74198914 C105.16696881 501.60564461 105.0173402 490.46967912 104.91937828 479.33189678 C104.86731913 473.606461 104.79677965 467.88252922 104.68310547 462.15795898 C104.57397131 456.62703118 104.51455913 451.0975442 104.48872757 445.56562233 C104.47033441 443.46163067 104.43441454 441.35771268 104.38019943 439.25433922 C103.92175389 420.72094713 103.92175389 420.72094713 110.29321289 413.7109375 C111.99197687 412.2262845 113.70536353 410.75807838 115.4375 409.3125 C117.64355631 406.5284018 119.57828281 403.61065901 121.5 400.625 C122.00257324 399.85518799 122.50514648 399.08537598 123.02294922 398.29223633 C156.71598281 346.11356539 172.62756511 283.84482284 172.62280273 222.05297852 C172.62497343 218.9134329 172.64313597 215.77424866 172.66210938 212.63476562 C172.71414074 194.42584654 171.27994509 176.58250803 168.25 158.625 C168.04004395 157.37114502 167.83008789 156.11729004 167.61376953 154.82543945 C164.83823179 138.99212239 160.63658363 123.51588092 155.4375 108.3125 C154.55191406 109.24449219 153.66632813 110.17648437 152.75390625 111.13671875 C143.65638447 120.55897428 134.10591185 128.72438642 123.4375 136.3125 C122.80344238 136.76463867 122.16938477 137.21677734 121.51611328 137.68261719 C80.62962333 166.53227939 32.55309843 181.41659378 -14.70191956 196.09382629 C-29.51412461 200.69467464 -44.23345541 205.3333886 -58.5625 211.3125 C-59.37605957 211.64926758 -60.18961914 211.98603516 -61.02783203 212.33300781 C-121.36258961 237.59488294 -169.29960782 284.38962417 -194.29760742 345.00219727 C-199.00168196 356.85759352 -202.61320114 368.91114794 -205.5625 381.3125 C-205.76214355 382.13782227 -205.96178711 382.96314453 -206.16748047 383.81347656 C-215.72132785 424.17344278 -212.68365645 466.43072268 -202.5625 506.3125 C-202.35898926 507.12750977 -202.15547852 507.94251953 -201.94580078 508.78222656 C-198.72566449 521.42424312 -193.67475962 533.33487179 -188.5625 545.3125 C-188.2325 545.3125 -187.9025 545.3125 -187.5625 545.3125 C-187.32917969 544.25160156 -187.09585938 543.19070313 -186.85546875 542.09765625 C-179.24227579 509.00268006 -167.11687297 476.43078307 -149.5625 447.3125 C-149.10939453 446.55598145 -148.65628906 445.79946289 -148.18945312 445.02001953 C-137.7460964 427.71112273 -125.89321681 411.50382589 -112.5625 396.3125 C-111.95277344 395.60351562 -111.34304688 394.89453125 -110.71484375 394.1640625 C-100.06510505 381.82748575 -88.96313986 369.57610767 -76.53125 359.00390625 C-74.28468493 357.07382158 -72.11666096 355.06831861 -69.9375 353.0625 C-64.30943404 347.99209302 -58.40333813 343.33246229 -52.39697266 338.72314453 C-50.65733428 337.38542421 -48.92812362 336.03513625 -47.19921875 334.68359375 C-36.15470524 326.14828507 -24.53249555 318.45664693 -12.96426392 310.65898132 C-12.3031662 310.21335342 -11.64206848 309.76772552 -10.9609375 309.30859375 C-10.30862152 308.86888748 -9.65630554 308.42918121 -8.98422241 307.97615051 C4.91513884 298.59970299 18.28591354 288.71121399 31.4375 278.3125 C33.81171805 276.43650662 36.18644085 274.56116113 38.5625 272.6875 C39.10946533 272.2558252 39.65643066 271.82415039 40.2199707 271.37939453 C47.19596828 265.89687006 54.31996532 260.60905503 61.4375 255.3125 C61.4375 259.44135922 59.29809034 261.67995653 56.9375 264.875 C56.24974487 265.8187146 56.24974487 265.8187146 55.5480957 266.78149414 C45.82502701 280.03930167 35.22842371 292.85011089 23.43359375 304.3203125 C20.79245343 306.95628425 18.37309962 309.75741225 15.9375 312.58203125 C14.18873565 314.59948596 12.43453817 316.53735496 10.4375 318.3125 C9.7775 318.3125 9.1175 318.3125 8.4375 318.3125 C8.4375 318.9725 8.4375 319.6325 8.4375 320.3125 C6.98632813 321.7578125 6.98632813 321.7578125 4.96875 323.4375 C0.48143773 327.25329547 -3.79456888 331.25446713 -8.0625 335.3125 C-12.87100124 339.88451757 -17.72345356 344.37399975 -22.73583984 348.72216797 C-30.1126636 355.14459913 -37.21453059 361.90070773 -44.375 368.5625 C-45.28971069 369.41146851 -45.28971069 369.41146851 -46.22290039 370.27758789 C-51.63993987 375.3295164 -57.0695512 380.4151262 -61.875 386.0625 C-64.62048122 389.25435122 -67.44839615 392.35168827 -70.3125 395.4375 C-75.60669345 401.24506979 -80.43772989 407.35413312 -85.22314453 413.58349609 C-86.48411407 415.21130985 -87.77057498 416.81928523 -89.05859375 418.42578125 C-129.30690828 469.1064589 -146.10760536 535.46166744 -149.625 599.125 C-149.70798395 600.55461696 -149.7911575 601.98422294 -149.87451172 603.41381836 C-150.61669083 616.37275685 -151.14427832 629.33912754 -151.5625 642.3125 C-174.41851264 631.44499535 -195.26410874 617.69204501 -214.5625 601.3125 C-215.55378906 600.50554688 -216.54507813 599.69859375 -217.56640625 598.8671875 C-225.4092151 592.41437805 -232.67934439 585.40908264 -239.875 578.25 C-240.79385986 577.34032471 -241.71271973 576.43064941 -242.65942383 575.4934082 C-248.72052768 569.40494045 -254.20830072 563.0248124 -259.5625 556.3125 C-260.6585095 554.9951496 -261.75833528 553.6809576 -262.86328125 552.37109375 C-270.84998626 542.81066015 -277.89424002 532.82979941 -284.5625 522.3125 C-284.95356934 521.70148437 -285.34463867 521.09046875 -285.74755859 520.4609375 C-319.47359926 467.42677572 -337.12668855 404.1189757 -336.875 341.375 C-336.87350952 340.44594849 -336.87201904 339.51689697 -336.8704834 338.55969238 C-336.82392384 322.3034574 -335.89849702 306.41778983 -333.5625 290.3125 C-333.42328125 289.32024414 -333.2840625 288.32798828 -333.140625 287.30566406 C-323.69307009 221.85072926 -293.21288662 159.10595885 -248.52734375 110.4609375 C-246.72253556 108.48748918 -244.98298535 106.47386168 -243.25 104.4375 C-235.99524078 96.1198342 -227.99162972 88.42601238 -219.5625 81.3125 C-218.65628906 80.51714844 -217.75007812 79.72179687 -216.81640625 78.90234375 C-168.67408475 36.9060146 -107.65643531 10.74838216 -44.5625 2.3125 C-43.52371452 2.17265434 -43.52371452 2.17265434 -42.46394348 2.02998352 C-28.31319706 0.18800016 -14.25555363 -0.04797647 0 0 Z " fill="#00AB52" transform="translate(765.5625,159.6875)"/>
<path d="M0 0 C6.93 0 13.86 0 21 0 C21 7.59 21 15.18 21 23 C14.07 23 7.14 23 0 23 C0 15.41 0 7.82 0 0 Z " fill="#F2FBF7" transform="translate(813,641)"/>
<path d="M0 0 C6.93 0 13.86 0 21 0 C21 7.59 21 15.18 21 23 C14.07 23 7.14 23 0 23 C0 15.41 0 7.82 0 0 Z " fill="#F7FDFA" transform="translate(813,554)"/>
<path d="M0 0 C6.6 0 13.2 0 20 0 C20 7.26 20 14.52 20 22 C13.4 22 6.8 22 0 22 C0 14.74 0 7.48 0 0 Z " fill="#FDFEFE" transform="translate(813,598)"/>
<path d="M0 0 C6.27 0 12.54 0 19 0 C19 7.26 19 14.52 19 22 C12.73 22 6.46 22 0 22 C0 14.74 0 7.48 0 0 Z " fill="#FDFEFD" transform="translate(737,664)"/>
<path d="M0 0 C6.27 0 12.54 0 19 0 C19 7.26 19 14.52 19 22 C12.73 22 6.46 22 0 22 C0 14.74 0 7.48 0 0 Z " fill="#FDFEFE" transform="translate(737,624)"/>
<path d="M0 0 C0 4.27646036 -2.3816724 6.7391293 -4.8125 10.0625 C-5.49022461 11.01866211 -5.49022461 11.01866211 -6.18164062 11.99414062 C-8.35569185 15.00607436 -9.84775336 16.89850224 -13 19 C-12.690625 18.401875 -12.38125 17.80375 -12.0625 17.1875 C-10.89790296 14.91043228 -10.89790296 14.91043228 -10 12 C-11.32 11.67 -12.64 11.34 -14 11 C-12.23055495 9.53998252 -10.45939429 8.08204407 -8.6875 6.625 C-7.70136719 5.81289063 -6.71523438 5.00078125 -5.69921875 4.1640625 C-3 2 -3 2 0 0 Z " fill="#05A746" transform="translate(827,415)"/>
<path d="M0 0 C0.33 0 0.66 0 1 0 C1 7.59 1 15.18 1 23 C-4.4140625 23.2784375 -4.4140625 23.2784375 -9.9375 23.5625 C-11.07695068 23.62381104 -12.21640137 23.68512207 -13.39038086 23.74829102 C-14.28120361 23.79139404 -15.17202637 23.83449707 -16.08984375 23.87890625 C-17.46450806 23.94960327 -17.46450806 23.94960327 -18.86694336 24.02172852 C-21 24 -21 24 -22 23 C-22.08651611 21.58429877 -22.10704904 20.164405 -22.09765625 18.74609375 C-22.09443359 17.89208984 -22.09121094 17.03808594 -22.08789062 16.15820312 C-22.07951172 15.26037109 -22.07113281 14.36253906 -22.0625 13.4375 C-22.05798828 12.53580078 -22.05347656 11.63410156 -22.04882812 10.70507812 C-22.03700225 8.46998686 -22.0205222 6.23502563 -22 4 C-21.67 4 -21.34 4 -21 4 C-20.67 9.61 -20.34 15.22 -20 21 C-13.4 21.33 -6.8 21.66 0 22 C0 14.74 0 7.48 0 0 Z " fill="#39C07A" transform="translate(833,598)"/>
<path d="M0 0 C0 5.54449625 -3.44738012 8.56576044 -7.1875 12.3125 C-8.45353969 13.54660355 -9.72282148 14.77742768 -11 16 C-11.66 15.67 -12.32 15.34 -13 15 C-11.02132918 12.68707408 -9.04208794 10.37464074 -7.0625 8.0625 C-6.49853516 7.40314453 -5.93457031 6.74378906 -5.35351562 6.06445312 C-4.81533203 5.43603516 -4.27714844 4.80761719 -3.72265625 4.16015625 C-3.22515869 3.57886963 -2.72766113 2.99758301 -2.21508789 2.39868164 C-1.5013317 1.57708043 -0.76957015 0.76957015 0 0 Z " fill="#07A542" transform="translate(517,270)"/>
<path d="M0 0 C0.33 0.99 0.66 1.98 1 3 C0.13837624 4.34413307 -0.73847494 5.68016018 -1.67578125 6.97265625 C-4.55918639 11.38707297 -6.70043034 16.2628865 -9 21 C-9.66 21 -10.32 21 -11 21 C-9.53171057 15.82064939 -7.18508737 11.65626588 -4.375 7.125 C-3.95476563 6.43664062 -3.53453125 5.74828125 -3.1015625 5.0390625 C-2.07307528 3.35608342 -1.037279 1.67757468 0 0 Z " fill="#08A23D" transform="translate(620,601)"/>
<path d="M0 0 C0 3.39593478 -0.52165948 4.06619881 -2.5 6.6875 C-2.9640625 7.31011719 -3.428125 7.93273437 -3.90625 8.57421875 C-4.2671875 9.04472656 -4.628125 9.51523437 -5 10 C-5.33 9.01 -5.66 8.02 -6 7 C-6.99 7 -7.98 7 -9 7 C-6.03 4.69 -3.06 2.38 0 0 Z " fill="#0CA039" transform="translate(827,415)"/>
<path d="M0 0 C0.33 1.32 0.66 2.64 1 4 C0.34 4 -0.32 4 -1 4 C-1.33 4.99 -1.66 5.98 -2 7 C-2.66 7 -3.32 7 -4 7 C-4.28875 7.804375 -4.5775 8.60875 -4.875 9.4375 C-6 12 -6 12 -8 13 C-6.40956621 7.91061189 -3.2553049 4.12543357 0 0 Z " fill="#08A33E" transform="translate(661,735)"/>
<path d="M0 0 C0.99 0.33 1.98 0.66 3 1 C2.67 3.64 2.34 6.28 2 9 C1.34 8.67 0.68 8.34 0 8 C0 5.36 0 2.72 0 0 Z " fill="#09A84B" transform="translate(616,723)"/>
<path d="M0 0 C0.33 0.66 0.66 1.32 1 2 C0.0625 4.125 0.0625 4.125 -1 6 C-1.66 6 -2.32 6 -3 6 C-3.66 7.32 -4.32 8.64 -5 10 C-5 6.60406522 -4.47834052 5.93380119 -2.5 3.3125 C-2.0359375 2.68988281 -1.571875 2.06726563 -1.09375 1.42578125 C-0.7328125 0.95527344 -0.371875 0.48476563 0 0 Z " fill="#04A13A" transform="translate(493,300)"/>
<path d="M0 0 C0.66 0.33 1.32 0.66 2 1 C1.0479279 2.00596297 0.08812654 3.00461563 -0.875 4 C-1.40867187 4.556875 -1.94234375 5.11375 -2.4921875 5.6875 C-4 7 -4 7 -6 7 C-6 6.01 -6 5.02 -6 4 C-3 1.8125 -3 1.8125 0 0 Z " fill="#07A442" transform="translate(580,215)"/>
<path d="M0 0 C0.99 0.33 1.98 0.66 3 1 C-0.96 4.465 -0.96 4.465 -5 8 C-5 5 -5 5 -2.5 2.3125 C-1.675 1.549375 -0.85 0.78625 0 0 Z " fill="#03A33C" transform="translate(662,546)"/>
</svg>
